<?xml version="1.0" encoding="UTF-8" standalone="no"?>
<svg
   xmlns:dc="http://purl.org/dc/elements/1.1/"
   xmlns:cc="http://creativecommons.org/ns#"
   xmlns:rdf="http://www.w3.org/1999/02/22-rdf-syntax-ns#"
   xmlns:svg="http://www.w3.org/2000/svg"
   xmlns="http://www.w3.org/2000/svg"
   xmlns:sodipodi="http://sodipodi.sourceforge.net/DTD/sodipodi-0.dtd"
   xmlns:inkscape="http://www.inkscape.org/namespaces/inkscape"
   width="107.63mm"
   height="88.792mm"
   version="1.1"
   viewBox="0 0 107.63 88.792"
   id="svg849"
   sodipodi:docname="logo.svg"
   inkscape:version="1.0.1 (c497b03c, 2020-09-10)">
  <defs
     id="defs853" />
  <sodipodi:namedview
     pagecolor="#ffffff"
     bordercolor="#666666"
     borderopacity="1"
     objecttolerance="10"
     gridtolerance="10"
     guidetolerance="10"
     inkscape:pageopacity="0"
     inkscape:pageshadow="2"
     inkscape:window-width="1440"
     inkscape:window-height="847"
     id="namedview851"
     showgrid="false"
     inkscape:zoom="1.7699527"
     inkscape:cx="203.39527"
     inkscape:cy="167.79591"
     inkscape:window-x="0"
     inkscape:window-y="26"
     inkscape:window-maximized="0"
     inkscape:current-layer="g847"
     inkscape:document-rotation="0" />
  <metadata
     id="metadata833">
    <rdf:RDF>
      <cc:Work
         rdf:about="">
        <dc:format>image/svg+xml</dc:format>
        <dc:type
           rdf:resource="http://purl.org/dc/dcmitype/StillImage" />
        <dc:title />
      </cc:Work>
    </rdf:RDF>
  </metadata>
  <g
     transform="translate(-51.544 -99.148)"
     id="g847">
    <g
       id="g843">
      <text
         x="76.306564"
         y="157.83012"
         fill="#e7dfdd"
         font-family="Skia"
         font-size="89.486px"
         stroke-width=".16779"
         style="font-variant-caps:normal;font-variant-east-asian:normal;font-variant-ligatures:normal;font-variant-numeric:normal;line-height:1.25;fill:#ffffff;fill-opacity:1;stroke:none;stroke-opacity:1;"
         xml:space="preserve"
         id="text837"><tspan
           x="76.306564"
           y="157.83012"
           fill="#e7dfdd"
           font-family="Skia"
           font-size="89.486px"
           stroke-width=".16779"
           style="font-variant-caps:normal;font-variant-east-asian:normal;font-variant-ligatures:normal;font-variant-numeric:normal;fill:#ffffff;fill-opacity:1;stroke:none;stroke-opacity:1;"
           id="tspan835">R</tspan></text>
      <path
         d="m101.94 186.86c-4.6385-2.2346-8.8641-7.503-13.239-16.507-2.2211-4.5708-4.7646-10.589-4.5656-10.803 0.05254-0.0565 1.5949 0.59697 3.4275 1.452 8.6074 4.0162 15.68 5.7675 23.147 5.7316 4.3941-0.0211 5.6638-0.17968 8.6321-1.078 3.846-1.1639 8.7505-3.5016 12.323-5.8738 1.2813-0.85068 2.4073-1.469 2.5023-1.374 0.25166 0.25166-2.3027 5.2034-5.2158 10.111-7.6276 12.85-14.615 19.07-21.78 19.386-2.439 0.10788-3.1184-0.028-5.2316-1.046z"
         fill="#4717f4"
         id="path839"
         style="fill:#66fcf1;fill-opacity:1" />
      <path
         d="m78.869 155.94c-8.1391-4.9386-16.438-12.028-20.814-17.781-2.5729-3.382-5.2388-8.5078-6.029-11.592-1.5968-6.233 0.91256-13.756 5.5429-16.618 4.7187-2.9163 9.1824 2.4974 14.848 18.008 3.0465 8.3404 10.437 29.971 10.287 30.109-0.07213 0.0665-1.7977-0.89028-3.8345-2.1262z"
         fill="#4717f4"
         id="path841"
         style="fill:#66fcf1;fill-opacity:1" />
    </g>
    <path
       d="m136.67 155.24c0-0.18154 0.71014-1.8488 1.5781-3.705s3.7057-8.0641 6.3061-13.795c6.5903-14.525 9.4531-19.104 11.944-19.104 1.6966 0 2.9358 2.2241 2.6384 4.7352-0.71246 6.0156-6.9851 16.513-15.088 25.249-2.8869 3.1125-7.3792 7.1427-7.3792 6.6201z"
       fill="#4717f4"
       id="path845"
       style="fill:#66fcf1;fill-opacity:1" />
  </g>
</svg>
